<svg width="320" height="388" viewBox="0 0 320 388" fill="none" xmlns="http://www.w3.org/2000/svg">
<path d="M22.5195 100.361C22.806 100.146 23.2715 99.7884 23.916 99.2871C24.4889 98.7858 25.2051 97.8548 26.0645 96.4941C26.8522 95.1335 27.7474 93.1641 28.75 90.5859C29.7526 88.0078 30.791 84.4987 31.8652 80.0586C32.4381 77.6953 33.1901 74.6875 34.121 71.0352C35.052 67.3828 36.0546 63.4798 37.1289 59.3262C38.2747 55.1725 39.4205 50.9115 40.5664 46.543C41.7122 42.1029 42.8222 37.9134 43.8964 33.9746C44.9707 29.9642 45.9375 26.3477 46.7968 23.125C47.6562 19.9023 48.3365 17.3958 48.8378 15.6055C47.4772 16.4648 46.1523 17.4316 44.8632 18.5059C43.7174 19.4368 42.5 20.5111 41.2109 21.7285C39.9218 22.8743 38.6686 24.0918 37.4511 25.3809C36.5201 24.5931 35.804 23.7337 35.3027 22.8027C35.0162 22.373 34.7656 21.9076 34.5507 21.4062C34.121 20.332 33.9062 19.222 33.9062 18.0762C33.9062 16.9303 34.8014 15.7487 36.5918 14.5312C37.5227 13.8867 38.9192 12.9557 40.7812 11.7383C42.7148 10.5208 45.0781 9.3392 47.871 8.19337C50.664 6.97592 53.9225 5.93751 57.6464 5.07813C61.3704 4.21876 65.4882 3.78907 70 3.78907C74.5117 3.78907 78.1282 4.68425 80.8496 6.47462C83.6425 8.26498 85.7552 10.4492 87.1875 13.0273C88.6914 15.6055 89.6582 18.3268 90.0878 21.1914C90.5175 24.056 90.625 26.5625 90.4101 28.7109C89.9804 32.7214 88.6914 36.9108 86.5429 41.2793C84.3945 45.6478 81.4225 49.694 77.6269 53.418C73.8313 57.0703 69.2122 60.1855 63.7695 62.7637C58.3268 65.3418 52.0963 66.8099 45.0781 67.168C44.5052 69.8893 43.9322 72.6823 43.3593 75.5469C42.7864 78.4115 42.1777 81.2402 41.5332 84.0332C40.8886 86.7546 40.2083 89.2969 39.4921 91.6602C38.8476 94.0951 38.1673 96.1719 37.4511 97.8906C36.735 99.7526 35.804 101.221 34.6582 102.295C33.5123 103.441 31.6862 104.014 29.1797 104.014C27.8906 104.014 26.709 103.691 25.6348 103.047C24.4889 102.402 23.4505 101.507 22.5195 100.361ZM47.9785 51.377C47.7636 52.5228 47.4772 54.0267 47.1191 55.8887C46.8326 57.679 46.4746 59.7201 46.0449 62.0117C47.9785 61.7253 50.1269 61.224 52.4902 60.5078C54.8535 59.7201 57.2168 58.6816 59.58 57.3926C61.9433 56.1035 64.235 54.5638 66.455 52.7734C68.7467 50.9115 70.8235 48.7988 72.6855 46.4355C74.5475 44.0007 76.0872 41.2793 77.3046 38.2715C78.5937 35.1921 79.4173 31.7904 79.7753 28.0664C80.1334 24.4857 79.9186 21.5137 79.1308 19.1504C78.4147 16.7155 77.3404 14.7819 75.9082 13.3496C74.4759 11.8457 72.8287 10.8073 70.9668 10.2344C69.1048 9.58985 67.2428 9.26759 65.3808 9.26759C63.5904 9.26759 61.8359 9.51824 60.1171 10.0195C58.3984 10.5208 56.6796 11.1654 54.9609 11.9531C55.1757 12.0247 55.4264 12.2038 55.7128 12.4902C56.1425 12.9199 56.4648 13.5286 56.6796 14.3164C54.9609 21.263 53.5286 27.0638 52.3828 31.7188C51.3085 36.3737 50.4492 40.1693 49.8046 43.1055C49.0169 46.543 48.4082 49.3001 47.9785 51.377ZM137.461 62.6562C135.312 65.8073 132.878 68.8867 130.156 71.8945C127.435 74.8307 124.534 77.4805 121.455 79.8438C118.447 82.1354 115.332 83.9974 112.109 85.4297C108.958 86.862 105.879 87.5781 102.871 87.5781C101.296 87.5781 99.5768 87.1842 97.7148 86.3965C95.9244 85.6803 94.2773 84.5345 92.7734 82.959C91.2695 81.3835 90.052 79.3424 89.121 76.8359C88.2617 74.3294 88.011 71.2858 88.3691 67.7051C88.6556 64.7689 89.5507 61.6895 91.0546 58.4668C92.6302 55.1725 94.5279 52.1647 96.748 49.4434C99.0397 46.722 101.582 44.4661 104.375 42.6758C107.24 40.8854 110.104 39.9902 112.969 39.9902C115.69 39.9902 117.66 40.6706 118.877 42.0312C120.094 43.3919 120.632 45.0749 120.488 47.0801C120.273 49.3001 119.629 51.3411 118.555 53.2031C117.552 55.0651 116.335 56.748 114.902 58.252C113.47 59.7559 111.93 61.1165 110.283 62.334C108.708 63.5514 107.204 64.6615 105.771 65.6641C104.196 66.7383 102.692 67.7767 101.26 68.7793C99.8275 69.7103 98.5742 70.5697 97.5 71.3574C97.5716 73.1478 97.8939 74.6517 98.4669 75.8691C99.0398 77.0866 99.7558 78.0892 100.615 78.877C101.475 79.5931 102.441 80.1302 103.516 80.4883C104.661 80.7747 105.807 80.918 106.953 80.918C109.388 80.918 111.93 80.166 114.58 78.6621C117.23 77.0866 119.808 75.2246 122.314 73.0762C124.893 70.8561 127.256 68.5645 129.404 66.2012C131.624 63.8379 133.45 61.7969 134.883 60.0781C135.384 59.5052 135.885 59.1829 136.387 59.1113C136.96 58.9681 137.389 59.0397 137.676 59.3262C138.034 59.541 138.213 59.9707 138.213 60.6152C138.213 61.1882 137.962 61.8685 137.461 62.6562ZM109.961 46.1133C109.102 46.1133 108.063 46.543 106.846 47.4023C105.7 48.2617 104.554 49.515 103.408 51.1621C102.262 52.7376 101.188 54.707 100.186 57.0703C99.1829 59.362 98.4309 62.0117 97.9296 65.0195C98.789 64.375 99.72 63.7305 100.723 63.0859C101.725 62.3698 102.728 61.6178 103.73 60.8301C106.81 58.4668 108.958 56.39 110.176 54.5996C111.393 52.8092 112.074 51.2695 112.217 49.9805C112.36 48.6198 112.217 47.653 111.787 47.0801C111.357 46.4355 110.749 46.1133 109.961 46.1133ZM169.365 57.8223C169.652 57.3926 170.01 57.1419 170.439 57.0703C170.941 56.9271 171.335 56.9629 171.621 57.1777C171.908 57.3926 172.051 57.7507 172.051 58.252C172.122 58.7533 171.943 59.4336 171.514 60.293C170.081 63.0143 168.184 65.9505 165.82 69.1016C163.529 72.2526 161.094 75.2246 158.516 78.0176C155.937 80.7389 153.431 82.9948 150.996 84.7852C148.561 86.5755 146.52 87.4707 144.873 87.4707C142.51 87.4707 140.54 87.0052 138.965 86.0742C137.389 85.1432 136.136 83.9974 135.205 82.6367C134.346 81.276 133.737 79.8079 133.379 78.2324C133.021 76.5853 132.913 75.0814 133.057 73.7207C133.128 72.5749 133.379 70.5339 133.809 67.5977C134.238 64.5898 134.811 61.1523 135.527 57.2852C136.243 53.3464 137.031 49.1569 137.891 44.7168C138.822 40.2051 139.788 35.8724 140.791 31.7188C139.574 31.862 138.356 32.0052 137.139 32.1484C135.921 32.2917 134.811 32.3633 133.809 32.3633C131.517 32.3633 129.368 32.1126 127.363 31.6113C125.286 31.0384 123.747 30.5013 122.744 30C122.171 29.7135 121.921 29.3197 121.992 28.8184C122.064 28.2454 122.279 27.7083 122.637 27.207C122.995 26.6341 123.46 26.1686 124.033 25.8105C124.534 25.3809 125 25.166 125.43 25.166C126.79 25.3092 128.258 25.4525 129.834 25.5957C131.409 25.6673 133.128 25.6673 134.99 25.5957C136.351 25.5241 137.64 25.4167 138.857 25.2734C140.146 25.1302 141.4 24.9512 142.617 24.7363C143.548 21.2988 144.443 18.3268 145.303 15.8203C146.234 13.2422 147.057 11.4518 147.773 10.4492C147.988 10.0911 148.454 9.8047 149.17 9.58985C149.958 9.3034 150.781 9.12436 151.641 9.05274C152.5 8.90952 153.324 8.90952 154.111 9.05274C154.899 9.12436 155.472 9.37501 155.83 9.8047C156.188 10.3776 156.331 11.8457 156.26 14.209C156.188 16.5723 155.794 19.5801 155.078 23.2324C158.086 23.2324 160.736 23.4115 163.027 23.7695C165.391 24.056 167.396 24.4141 169.043 24.8438C170.69 25.2018 172.015 25.5957 173.018 26.0254C174.02 26.3835 174.772 26.6341 175.273 26.7773C175.775 26.9206 176.025 27.2786 176.025 27.8516C176.097 28.4245 175.99 29.0332 175.703 29.6777C175.488 30.2507 175.094 30.752 174.521 31.1816C173.949 31.6113 173.304 31.7546 172.588 31.6113C171.872 31.5397 171.048 31.3965 170.117 31.1816C169.258 30.9668 168.184 30.7878 166.894 30.6445C165.677 30.5013 164.209 30.3581 162.49 30.2148C160.771 30.0716 158.766 30 156.475 30C156.045 30 155.544 30.0358 154.971 30.1074C154.469 30.1074 153.932 30.1074 153.359 30.1074C153.073 31.2533 152.786 32.3991 152.5 33.5449C152.285 34.6191 151.963 35.765 151.533 36.9824C150.602 39.847 149.528 42.9622 148.31 46.3281C147.236 49.2643 145.947 52.6302 144.443 56.4258C142.939 60.2214 141.256 64.2676 139.394 68.5645C138.965 71.6439 139.001 74.0072 139.502 75.6543C140.075 77.2298 140.755 78.3757 141.543 79.0918C142.474 79.8796 143.62 80.3092 144.98 80.3809C146.055 80.5241 147.344 80.166 148.848 79.3066C150.423 78.3757 152.034 77.1582 153.682 75.6543C155.329 74.1504 156.976 72.5033 158.623 70.7129C160.342 68.9225 161.917 67.168 163.35 65.4492C164.782 63.7305 166.035 62.1908 167.109 60.8301C168.184 59.3978 168.936 58.3952 169.365 57.8223ZM202.344 35.6934C202.272 35.4785 202.487 34.9414 202.988 34.082C203.49 33.151 204.027 32.041 204.6 30.752C205.244 29.3913 205.853 27.8874 206.426 26.2402C207.07 24.5215 207.5 22.7669 207.715 20.9766C208.001 19.1862 208.001 17.3958 207.715 15.6055C207.428 13.8151 206.676 12.0964 205.459 10.4492C204.743 9.58985 203.669 9.12436 202.236 9.05274C200.876 8.90952 199.3 9.12436 197.51 9.69728C195.791 10.1986 193.965 11.0221 192.031 12.168C190.169 13.2422 188.45 14.5312 186.875 16.0352C185.299 17.4674 183.939 19.0788 182.793 20.8691C181.719 22.6595 181.11 24.4857 180.967 26.3477C180.824 27.8516 180.859 29.248 181.074 30.5371C181.361 31.8262 181.719 33.0078 182.148 34.082C182.578 35.1562 183.044 36.1589 183.545 37.0898C184.046 38.0208 184.512 38.8444 184.941 39.5605C185.514 40.5632 186.409 41.6732 187.627 42.8906C188.844 44.1081 190.169 45.5046 191.602 47.0801C193.034 48.584 194.466 50.3027 195.898 52.2363C197.331 54.1699 198.584 56.3542 199.658 58.7891C200.732 61.224 201.484 63.9453 201.914 66.9531C202.344 69.9609 202.308 73.291 201.807 76.9434C201.019 82.2428 199.766 86.6471 198.047 90.1562C196.328 93.737 194.43 96.6016 192.353 98.75C190.348 100.898 188.307 102.438 186.23 103.369C184.154 104.372 182.435 105.016 181.074 105.303C180 105.518 178.711 105.697 177.207 105.84C175.775 106.055 174.235 106.019 172.588 105.732C171.012 105.518 169.401 105.016 167.754 104.229C166.107 103.512 164.639 102.367 163.35 100.791C161.846 99.0007 160.664 97.0671 159.805 94.9902C159.017 93.1999 158.444 91.123 158.086 88.7598C157.656 86.4681 157.835 84.069 158.623 81.5625C159.196 80.918 159.805 80.3451 160.449 79.8438C161.094 79.3424 161.738 78.9128 162.383 78.5547C163.099 78.125 163.851 77.7311 164.639 77.373C165.57 77.0866 166.501 76.8359 167.432 76.6211C168.219 76.4779 169.043 76.4062 169.902 76.4062C170.833 76.3346 171.693 76.4421 172.48 76.7285C171.406 77.946 170.654 79.0918 170.225 80.166C169.938 80.7389 169.723 81.2402 169.58 81.6699C169.294 83.0306 169.186 84.6419 169.258 86.5039C169.401 88.4375 169.795 90.2637 170.439 91.9824C171.156 93.7728 172.158 95.2767 173.447 96.4941C174.736 97.7832 176.455 98.4635 178.603 98.5352C183.831 98.6784 188.271 94.5964 191.924 86.2891C193.141 83.7109 193.75 81.097 193.75 78.4473C193.822 75.7975 193.499 73.2552 192.783 70.8203C192.139 68.3854 191.243 66.1296 190.098 64.0527C189.023 61.9043 187.913 60.0781 186.768 58.5742C185.622 57.0703 184.225 55.459 182.578 53.7402C181.003 51.9499 179.427 50.0163 177.852 47.9395C176.276 45.8626 174.844 43.6068 173.555 41.1719C172.337 38.737 171.514 36.0872 171.084 33.2227C170.511 29.2122 170.869 25.5599 172.158 22.2656C173.519 18.8997 175.309 15.9635 177.529 13.457C179.821 10.9505 182.292 8.90952 184.941 7.33399C187.663 5.75847 190.062 4.75587 192.139 4.32618C203.669 2.03452 211.224 3.96811 214.805 10.127C216.309 12.4902 217.132 14.9967 217.275 17.6465C217.419 20.2962 217.24 22.7669 216.738 25.0586C216.309 27.2786 215.736 29.1764 215.019 30.752C214.375 32.2559 213.945 33.0794 213.73 33.2227C213.301 33.6523 212.62 34.1178 211.689 34.6191C210.758 35.1204 209.255 35.5859 207.178 36.0156C206.605 36.1589 206.032 36.2305 205.459 36.2305C204.958 36.2305 204.421 36.1947 203.848 36.123C203.275 36.0514 202.773 35.9082 202.344 35.6934ZM238.76 21.7285C238.545 22.5163 238.115 23.304 237.471 24.0918C236.898 24.8079 236.217 25.4167 235.43 25.918C234.713 26.3477 233.962 26.6341 233.174 26.7773C232.386 26.9206 231.741 26.7773 231.24 26.3477C229.736 25.2018 228.949 23.9844 228.877 22.6953C228.805 21.3346 229.128 20.0814 229.844 18.9355C230.56 17.7181 231.455 16.7155 232.529 15.9277C233.603 15.0684 234.534 14.5671 235.322 14.4238C236.11 14.2806 236.755 14.4596 237.256 14.9609C237.829 15.3906 238.258 15.9993 238.545 16.7871C238.831 17.5033 238.975 18.3268 238.975 19.2578C239.046 20.1888 238.975 21.0124 238.76 21.7285ZM223.936 44.6094C224.294 44.1797 224.974 43.8216 225.977 43.5352C226.979 43.2487 228.018 43.0339 229.092 42.8906C230.166 42.6758 231.133 42.5684 231.992 42.5684C232.923 42.4967 233.46 42.4967 233.603 42.5684C233.675 42.64 233.496 43.3919 233.066 44.8242C232.637 46.2565 232.1 47.9395 231.455 49.873C230.81 51.8066 230.13 53.8118 229.414 55.8887C228.698 57.8939 228.161 59.541 227.803 60.8301C227.445 62.1191 227.015 63.5872 226.514 65.2344C226.012 66.8099 225.547 68.3854 225.117 69.9609C224.759 71.4648 224.508 72.8971 224.365 74.2578C224.222 75.6185 224.329 76.6569 224.687 77.373C225.046 78.2324 225.439 78.8411 225.869 79.1992C226.299 79.4857 226.764 79.6289 227.266 79.6289C228.698 79.6289 230.488 78.8411 232.637 77.2656C234.857 75.6901 237.077 73.8281 239.297 71.6797C241.588 69.4596 243.701 67.2396 245.635 65.0195C247.568 62.7279 249.001 60.9017 249.932 59.541C250.505 58.8249 251.077 58.3594 251.65 58.1445C252.295 57.9297 252.796 57.9655 253.154 58.252C253.584 58.5384 253.799 59.0039 253.799 59.6484C253.87 60.293 253.656 61.0449 253.154 61.9043C252.008 63.9095 250.325 66.3086 248.105 69.1016C245.885 71.8229 243.522 74.4727 241.016 77.0508C238.509 79.5573 236.038 81.7057 233.603 83.4961C231.24 85.2865 229.307 86.2174 227.803 86.2891C226.585 86.3607 225.368 86.1458 224.15 85.6445C223.005 85.2148 221.93 84.6061 220.928 83.8184C219.997 82.959 219.209 81.9922 218.564 80.918C217.92 79.7721 217.562 78.5905 217.49 77.373C217.275 75.5827 217.275 73.1478 217.49 70.0684C217.705 66.9173 218.099 63.7305 218.672 60.5078C219.245 57.2135 219.961 54.0983 220.82 51.1621C221.751 48.2259 222.79 46.0417 223.936 44.6094ZM284.951 57.8223C285.238 57.3926 285.596 57.1419 286.025 57.0703C286.527 56.9271 286.921 56.9629 287.207 57.1777C287.493 57.3926 287.637 57.7507 287.637 58.252C287.708 58.7533 287.529 59.4336 287.1 60.293C285.667 63.0143 283.769 65.9505 281.406 69.1016C279.115 72.2526 276.68 75.2246 274.102 78.0176C271.523 80.7389 269.017 82.9948 266.582 84.7852C264.147 86.5755 262.106 87.4707 260.459 87.4707C258.096 87.4707 256.126 87.0052 254.551 86.0742C252.975 85.1432 251.722 83.9974 250.791 82.6367C249.932 81.276 249.323 79.8079 248.965 78.2324C248.607 76.5853 248.499 75.0814 248.643 73.7207C248.714 72.5749 248.965 70.5339 249.394 67.5977C249.824 64.5898 250.397 61.1523 251.113 57.2852C251.829 53.3464 252.617 49.1569 253.477 44.7168C254.408 40.2051 255.374 35.8724 256.377 31.7188C255.159 31.862 253.942 32.0052 252.725 32.1484C251.507 32.2917 250.397 32.3633 249.394 32.3633C247.103 32.3633 244.954 32.1126 242.949 31.6113C240.872 31.0384 239.333 30.5013 238.33 30C237.757 29.7135 237.506 29.3197 237.578 28.8184C237.65 28.2454 237.865 27.7083 238.223 27.207C238.581 26.6341 239.046 26.1686 239.619 25.8105C240.12 25.3809 240.586 25.166 241.016 25.166C242.376 25.3092 243.844 25.4525 245.42 25.5957C246.995 25.6673 248.714 25.6673 250.576 25.5957C251.937 25.5241 253.226 25.4167 254.443 25.2734C255.732 25.1302 256.986 24.9512 258.203 24.7363C259.134 21.2988 260.029 18.3268 260.889 15.8203C261.82 13.2422 262.643 11.4518 263.359 10.4492C263.574 10.0911 264.04 9.8047 264.756 9.58985C265.544 9.3034 266.367 9.12436 267.227 9.05274C268.086 8.90952 268.909 8.90952 269.697 9.05274C270.485 9.12436 271.058 9.37501 271.416 9.8047C271.774 10.3776 271.917 11.8457 271.846 14.209C271.774 16.5723 271.38 19.5801 270.664 23.2324C273.672 23.2324 276.322 23.4115 278.613 23.7695C280.977 24.056 282.982 24.4141 284.629 24.8438C286.276 25.2018 287.601 25.5957 288.603 26.0254C289.606 26.3835 290.358 26.6341 290.859 26.7773C291.361 26.9206 291.611 27.2786 291.611 27.8516C291.683 28.4245 291.575 29.0332 291.289 29.6777C291.074 30.2507 290.68 30.752 290.107 31.1816C289.534 31.6113 288.89 31.7546 288.174 31.6113C287.458 31.5397 286.634 31.3965 285.703 31.1816C284.844 30.9668 283.769 30.7878 282.48 30.6445C281.263 30.5013 279.795 30.3581 278.076 30.2148C276.357 30.0716 274.352 30 272.06 30C271.631 30 271.13 30.0358 270.557 30.1074C270.055 30.1074 269.518 30.1074 268.945 30.1074C268.659 31.2533 268.372 32.3991 268.086 33.5449C267.871 34.6191 267.549 35.765 267.119 36.9824C266.188 39.847 265.114 42.9622 263.896 46.3281C262.822 49.2643 261.533 52.6302 260.029 56.4258C258.525 60.2214 256.842 64.2676 254.98 68.5645C254.551 71.6439 254.587 74.0072 255.088 75.6543C255.661 77.2298 256.341 78.3757 257.129 79.0918C258.06 79.8796 259.206 80.3092 260.566 80.3809C261.641 80.5241 262.93 80.166 264.434 79.3066C266.009 78.3757 267.62 77.1582 269.268 75.6543C270.915 74.1504 272.562 72.5033 274.209 70.7129C275.928 68.9225 277.503 67.168 278.936 65.4492C280.368 63.7305 281.621 62.1908 282.695 60.8301C283.769 59.3978 284.521 58.3952 284.951 57.8223Z" fill="black"/>
<path opacity="0.2" d="M139.827 301.287C101.56 304.624 18.7579 283.264 13.8911 209.174C9.02441 135.084 103.645 52.9941 187.143 58.9997C270.642 65.0053 304.037 159.118 302.649 205.174C301.261 251.231 260.205 285.27 210.804 293.275C161.397 301.287 139.827 301.287 139.827 301.287Z" fill="#4ADB18"/>
<path d="M166.271 193.826C166.271 193.826 165.574 170.466 166.271 148.438C166.968 126.41 173.925 113.73 173.925 113.73L188.538 105.719C188.538 105.719 199.671 106.387 206.629 118.399C213.587 130.416 217.763 139.09 217.763 139.09L207.326 144.427L208.72 186.477L166.271 193.826Z" fill="black"/>
<path d="M225.417 247.888L196.889 257.23L192.017 248.556L187.841 259.236L150.264 251.893L166.271 193.826L208.714 186.483C217.066 201.169 225.417 247.888 225.417 247.888ZM140.054 234.047C133.573 240.434 118.398 253.225 95.0303 260.268C95.0181 262.081 95.012 264.01 95.1037 266.033C99.8909 264.761 124.121 257.629 144.511 238.715C143.129 237.536 141.643 235.923 140.054 234.047Z" fill="#19739B"/>
<path d="M210.326 166.332C203.368 169 173.226 175.141 168.353 174.472C163.481 173.803 160.699 170.466 160.699 170.466C158.614 171.135 156.523 168.466 155.826 167.129C155.129 165.792 158.608 161.792 160.699 161.124C162.784 160.455 169.741 164.461 172.529 163.792C175.311 163.124 200.36 155.118 200.36 155.118L197.328 149.511L212.007 142.04C212.007 142.04 213.481 144.72 216.269 151.394C219.051 158.062 217.29 163.657 210.326 166.332ZM169.05 107.725L173.923 113.73L186.347 107.091L183.62 103.49C182.862 102.487 182.88 101.138 183.638 100.135C186.793 95.9715 191.532 86.6816 188.536 80.3593C185.057 73.0166 176.705 72.348 169.747 72.348C162.79 72.348 158.614 66.3424 156.529 70.3481C154.444 74.3538 157.923 78.3594 157.923 78.3594C155.838 83.6964 156.242 89.96 156.242 89.96L153.631 94.4701C153.24 95.1387 153.747 95.9656 154.548 95.9656H156.242C154.848 111.982 169.05 107.725 169.05 107.725Z" fill="#FFC397"/>
<path d="M95.1731 259.831C95.1731 259.831 95.0936 253.796 94.7451 250.794C93.9625 244.026 87.7874 242.782 81.5267 242.782C75.2659 242.782 74.5689 239.445 74.5689 239.445L85.0055 235.44C85.0055 235.44 73.8719 238.108 69.6961 235.44C65.5202 232.771 63.4354 226.097 64.1324 222.76C64.8294 219.423 81.5267 218.086 81.5267 218.086C82.2237 206.069 94.7451 200.732 110.752 206.069C123.065 210.18 132.792 224.854 140.197 233.604C133.716 239.997 118.541 252.788 95.1731 259.831ZM287.483 272.822C287.483 272.822 293.743 266.148 293.046 259.474C292.349 252.799 284.004 254.799 275.652 258.805C267.3 262.811 254.779 262.811 241.56 257.468C228.342 252.131 209.554 244.788 194.941 244.788C180.329 244.788 165.716 251.462 146.237 239.451C145.54 239.023 144.458 238.108 144.654 238.278C124.263 257.198 100.034 264.33 95.2465 265.596C95.2465 265.596 95.0936 273.825 98.224 280.165C103.977 291.812 123.273 297.519 123.273 297.519L130.231 312.204C130.231 312.204 112.836 322.215 110.055 326.89C107.273 331.564 106.576 333.564 106.576 336.232C106.576 338.901 108.661 340.238 113.533 340.238C118.406 340.238 118.406 334.232 118.406 334.232C118.406 334.232 135.801 330.227 145.54 327.558C155.28 324.89 153.892 302.861 153.892 302.861C153.892 302.861 162.934 307.536 171.286 302.861C179.638 298.187 185.202 304.199 195.638 298.856C195.638 298.856 203.293 310.204 203.99 315.541C204.687 320.878 200.511 334.232 199.117 336.901C197.723 339.569 190.074 340.907 191.462 347.581C191.462 347.581 202.596 347.581 206.075 347.581C209.554 347.581 213.032 342.244 214.426 336.901C215.82 331.564 223.469 331.564 223.469 322.215C223.469 312.867 233.906 306.199 231.124 296.85C228.342 287.507 237.385 286.839 236.688 276.828C236.688 276.828 252.694 296.181 258.258 288.845C258.258 288.845 276.349 295.519 279.131 292.85C281.913 290.182 277.046 284.176 277.046 284.176C277.046 284.176 290.264 284.176 291.658 279.502C293.052 274.822 287.483 272.822 287.483 272.822Z" fill="#E5D5AC"/>
<path d="M183.633 100.135C183.401 100.446 183.242 100.786 183.15 101.144C182.734 101.045 182.325 100.91 181.921 100.716C177.745 98.7162 178.442 95.3791 178.442 90.7049C178.442 86.0306 173.569 86.0306 173.569 86.0306C173.569 86.0306 172.872 91.3676 170.787 91.3676C168.703 91.3676 168.006 82.6935 168.006 82.6935C163.909 82.0367 161.152 80.7347 157.765 78.1659C157.117 77.3272 154.708 73.8377 156.523 70.3481C158.608 66.3424 162.784 72.348 169.742 72.348C176.7 72.348 185.051 73.0166 188.53 80.3593C191.532 86.6816 186.788 95.9715 183.633 100.135ZM160.1 90.3706C160.1 89.9483 159.746 89.6082 159.305 89.6082C158.865 89.6082 158.511 89.9483 158.511 90.3706C158.511 90.7928 158.865 91.133 159.305 91.133C159.752 91.1271 160.1 90.787 160.1 90.3706ZM162.668 99.1033C162.809 98.9743 162.809 98.7631 162.674 98.6341C162.54 98.5051 162.32 98.4992 162.185 98.6282C160.547 100.159 158.009 99.6663 157.979 99.6604C157.789 99.6253 157.606 99.7367 157.569 99.9185C157.532 100.1 157.648 100.276 157.838 100.311C157.948 100.335 160.754 100.886 162.668 99.1033ZM157.765 86.0658C157.593 86.1479 157.526 86.3473 157.612 86.5115C157.697 86.6757 157.905 86.7461 158.076 86.664C158.18 86.6112 160.663 85.4617 162.546 87.2681C162.613 87.3326 162.705 87.3678 162.79 87.3678C162.882 87.3678 162.968 87.3326 163.035 87.2681C163.169 87.1391 163.169 86.9279 163.035 86.7989C160.797 84.6524 157.795 86.0541 157.765 86.0658ZM200.367 155.447C200.404 155.447 200.44 155.441 200.477 155.429L202.562 154.76C202.745 154.702 202.843 154.514 202.782 154.338C202.721 154.162 202.525 154.068 202.342 154.127L200.257 154.796C200.073 154.854 199.976 155.042 200.037 155.218C200.086 155.359 200.22 155.447 200.367 155.447ZM160.546 170.765C160.595 170.789 160.65 170.801 160.699 170.801C160.828 170.801 160.95 170.73 161.011 170.619C161.042 170.554 161.8 169.053 160.253 167.563C160.119 167.434 159.898 167.434 159.764 167.563C159.629 167.692 159.629 167.903 159.764 168.032C160.95 169.17 160.418 170.273 160.394 170.32C160.308 170.484 160.375 170.683 160.546 170.765ZM195.494 150.772C195.531 150.772 195.567 150.766 195.604 150.755L197.689 150.086C197.872 150.027 197.97 149.84 197.909 149.664C197.848 149.488 197.652 149.394 197.469 149.453L195.647 150.033L183.963 130.908C183.865 130.75 183.651 130.697 183.486 130.791C183.321 130.885 183.266 131.09 183.364 131.248L195.194 150.602C195.256 150.714 195.372 150.772 195.494 150.772ZM208.602 186.166C208.419 186.225 208.321 186.413 208.382 186.589C208.431 186.729 213.17 200.641 209.079 212.406C204.965 224.253 193.275 244.603 193.159 244.809C193.067 244.973 193.128 245.172 193.293 245.26C193.348 245.29 193.403 245.301 193.464 245.301C193.587 245.301 193.703 245.237 193.77 245.131C193.886 244.926 205.607 224.522 209.746 212.617C213.909 200.635 209.098 186.518 209.049 186.378C208.982 186.202 208.786 186.108 208.602 186.166ZM225.618 254.961C225.459 254.855 225.245 254.89 225.135 255.037C225.025 255.189 225.061 255.395 225.214 255.5C225.312 255.565 234.844 262.256 236.201 277.282C236.219 277.458 236.366 277.587 236.55 277.587C236.562 277.587 236.568 277.587 236.58 277.587C236.77 277.57 236.916 277.411 236.898 277.223C236.17 269.218 233.156 263.6 230.747 260.292C228.131 256.703 225.716 255.031 225.618 254.961ZM195.139 279.323C195.176 279.141 195.054 278.965 194.864 278.93C194.675 278.895 194.491 279.012 194.455 279.194C194.436 279.294 192.382 289.399 195.158 299.369C195.201 299.516 195.341 299.615 195.494 299.615C195.525 299.615 195.555 299.609 195.586 299.604C195.769 299.557 195.879 299.375 195.83 299.193C193.097 289.381 195.121 279.423 195.139 279.323ZM150.599 290.507C150.544 290.331 150.348 290.232 150.165 290.284C149.982 290.337 149.878 290.525 149.933 290.701C151.993 297.287 153.393 303.298 153.405 303.357C153.442 303.515 153.583 303.621 153.748 303.621C153.772 303.621 153.797 303.621 153.821 303.615C154.011 303.574 154.127 303.398 154.084 303.216C154.072 303.152 152.666 297.117 150.599 290.507ZM123.257 297.639C123.153 297.598 112.986 293.61 111.641 285.88C111.61 285.698 111.433 285.575 111.243 285.604C111.054 285.634 110.925 285.804 110.956 285.986C111.543 289.346 113.811 292.537 117.528 295.211C120.316 297.217 122.89 298.214 123 298.255C123.043 298.272 123.086 298.278 123.129 298.278C123.27 298.278 123.398 298.196 123.453 298.067C123.526 297.903 123.435 297.703 123.257 297.639ZM86.2493 217.854C85.4789 217.854 84.8553 218.452 84.8553 219.191C84.8553 219.93 85.4789 220.528 86.2493 220.528C87.0197 220.528 87.6433 219.93 87.6433 219.191C87.6433 218.452 87.0197 217.854 86.2493 217.854ZM114.209 220.235C115.976 215.268 111.641 208.33 111.457 208.036C111.359 207.878 111.145 207.831 110.98 207.925C110.815 208.019 110.766 208.224 110.864 208.382C110.907 208.453 115.217 215.35 113.548 220.024C112.967 221.66 111.696 222.845 109.782 223.555C106.187 224.88 102.604 223.543 99.1376 219.572C96.5025 216.558 94.9373 213.086 94.9189 213.057C94.8456 212.887 94.6377 212.81 94.4604 212.881C94.2831 212.951 94.2036 213.15 94.277 213.321C94.332 213.45 99.4677 224.71 107.141 224.71C108.07 224.71 109.03 224.546 110.027 224.176C112.154 223.39 113.554 222.065 114.209 220.235ZM172.353 105.437L168.874 107.437C168.709 107.531 168.654 107.736 168.751 107.895C168.819 108 168.935 108.059 169.051 108.059C169.112 108.059 169.173 108.041 169.228 108.012L172.707 106.012C172.872 105.918 172.927 105.713 172.83 105.555C172.732 105.39 172.518 105.343 172.353 105.437ZM113.151 340.012C111.378 339.449 111.983 336.423 111.989 336.388C112.026 336.206 111.904 336.03 111.714 335.995C111.525 335.96 111.341 336.077 111.304 336.259C111.274 336.405 110.577 339.895 112.925 340.646C112.961 340.657 112.998 340.663 113.035 340.663C113.181 340.663 113.316 340.575 113.365 340.434C113.432 340.258 113.334 340.071 113.151 340.012ZM108.15 336.775C108.217 336.599 108.119 336.411 107.942 336.347C107.758 336.288 107.563 336.376 107.495 336.546C107.465 336.616 106.841 338.347 108.296 340.012C108.364 340.088 108.461 340.129 108.565 340.129C108.645 340.129 108.724 340.106 108.792 340.053C108.938 339.936 108.957 339.725 108.834 339.584C107.642 338.223 108.125 336.839 108.15 336.775ZM195.207 343.15C195.146 343.238 193.727 345.314 194.473 347.443C194.522 347.584 194.656 347.672 194.803 347.672C194.84 347.672 194.877 347.666 194.913 347.654C195.097 347.595 195.194 347.408 195.133 347.232C194.504 345.414 195.775 343.537 195.788 343.519C195.891 343.367 195.849 343.162 195.69 343.056C195.531 342.95 195.311 342.997 195.207 343.15ZM284.165 136.151C284.832 136.151 285.523 136.04 286.22 135.788C286.397 135.723 286.489 135.53 286.421 135.36C286.354 135.189 286.152 135.101 285.975 135.166C281.542 136.779 277.226 131.6 277.183 131.547C277.061 131.401 276.847 131.377 276.694 131.495C276.541 131.606 276.517 131.817 276.639 131.964C276.792 132.157 280.118 136.151 284.165 136.151ZM301.443 216.845C301.388 217.021 301.199 217.127 301.015 217.074C294.981 215.408 291.961 221.725 291.832 221.995C291.777 222.106 291.667 222.182 291.533 222.194C291.404 222.206 291.282 222.141 291.215 222.03C289.98 220.053 288.567 218.98 287.033 218.851C284.673 218.657 282.747 220.722 282.728 220.745C282.661 220.816 282.557 220.874 282.466 220.857C282.368 220.857 282.276 220.816 282.209 220.745C275.551 213.719 267.7 219.215 267.37 219.455C267.248 219.543 267.083 219.543 266.954 219.455C264.723 217.901 262.528 217.303 260.425 217.684C257.001 218.306 254.946 221.338 254.928 221.367C254.855 221.473 254.733 221.537 254.604 221.52C254.476 221.508 254.36 221.426 254.317 221.314C254.305 221.285 252.978 218.188 250.465 218.188C247.885 218.188 245.195 221.367 245.17 221.402C245.054 221.537 244.852 221.566 244.706 221.473C244.663 221.449 240.566 218.857 236.55 218.857C232.63 218.857 229.922 223.314 229.891 223.361C229.842 223.449 229.751 223.508 229.653 223.525C229.635 223.531 229.61 223.531 229.592 223.531C229.512 223.531 229.433 223.502 229.372 223.455C225.379 220.264 220.091 221.162 220.042 221.168C219.852 221.203 219.669 221.08 219.638 220.904C219.602 220.722 219.73 220.546 219.913 220.517C220.14 220.476 225.306 219.59 229.506 222.704C230.246 221.607 232.844 218.194 236.556 218.194C240.236 218.194 243.843 220.171 244.834 220.757C245.537 219.977 247.964 217.526 250.471 217.526C252.776 217.526 254.164 219.549 254.708 220.54C255.417 219.66 257.166 217.842 259.752 217.174V183.985C256.438 185.381 250.807 187.492 246.992 187.492C242.187 187.492 240.334 183.65 239.845 182.337C233.199 186.436 228.302 187.674 225.288 186.014C222.707 184.595 222.341 181.521 222.298 180.307C219.516 181.31 217.761 181.334 216.942 180.39C215.236 178.413 217.92 172.589 226.529 159.616C235.278 146.432 239.001 137.465 239.619 135.899C239.172 135.864 238.763 135.758 238.402 135.577C237.265 134.99 236.763 133.694 236.91 131.735C237.601 122.428 254.164 92.1066 254.867 90.8163C254.959 90.6521 255.167 90.5876 255.338 90.6755C255.509 90.7635 255.576 90.9629 255.485 91.1271C255.313 91.4438 238.286 122.615 237.607 131.782C237.485 133.453 237.864 134.533 238.732 134.984C241.422 136.38 248.478 131.97 250.96 130.157C251.052 130.093 251.174 130.069 251.284 130.105C251.394 130.14 251.48 130.228 251.51 130.333C251.523 130.38 252.788 134.808 256.781 136.186C260.021 137.307 264.16 136.175 269.058 132.814C269.217 132.709 269.431 132.744 269.541 132.89C269.651 133.043 269.614 133.248 269.461 133.354C265.658 135.958 262.277 137.266 259.361 137.266C258.364 137.266 257.423 137.113 256.536 136.808C252.953 135.565 251.431 132.204 250.985 130.961C249.462 132.028 244.015 135.67 240.352 135.893C240.145 136.433 236.519 145.77 227.11 159.962C221.332 168.672 215.664 177.862 217.474 179.95C218.104 180.677 219.846 180.519 222.512 179.498C222.622 179.457 222.744 179.469 222.842 179.539C222.94 179.604 222.995 179.715 222.989 179.827C222.989 179.868 222.817 183.879 225.636 185.427C228.424 186.958 233.34 185.615 239.845 181.533C239.937 181.475 240.059 181.463 240.163 181.504C240.267 181.545 240.346 181.627 240.377 181.733C240.432 181.938 241.777 186.817 246.998 186.817C252.415 186.817 262.051 182.225 262.149 182.178C262.247 182.131 262.363 182.131 262.467 182.184C262.565 182.237 262.632 182.325 262.65 182.431C262.656 182.472 263.335 186.817 265.787 186.817C268.306 186.817 270.317 182.389 270.335 182.348C270.384 182.237 270.494 182.161 270.617 182.149C270.739 182.137 270.861 182.19 270.935 182.284C270.971 182.331 274.426 186.817 282.478 186.817C290.53 186.817 293.281 182.36 293.306 182.313C293.367 182.214 293.477 182.149 293.593 182.143C293.709 182.126 293.825 182.196 293.893 182.29C293.917 182.331 296.626 186.149 300.563 186.149C300.752 186.149 300.911 186.295 300.911 186.483C300.911 186.665 300.759 186.817 300.563 186.817C297.005 186.817 294.461 184.102 293.617 183.058C292.706 184.237 289.546 187.486 282.472 187.486C279.69 187.486 277.452 186.982 275.685 186.301V216.517C275.685 216.552 275.673 216.587 275.661 216.617C277.862 216.845 280.234 217.784 282.472 220.036C283.126 219.426 284.905 217.995 287.094 218.182C288.726 218.323 290.2 219.332 291.484 221.185C292.425 219.561 295.678 214.904 301.205 216.429C301.394 216.482 301.498 216.669 301.443 216.845ZM274.994 216.57C274.988 216.552 274.982 216.534 274.982 216.517V186.014C272.702 185.011 271.326 183.75 270.714 183.093C270.072 184.337 268.208 187.48 265.762 187.48C263.225 187.48 262.283 184.196 262.02 182.97C261.672 183.134 261.122 183.381 260.431 183.68V217.009C262.62 216.652 264.882 217.244 267.156 218.775C268 218.247 271.179 216.405 274.994 216.57ZM155.869 217.15C153.295 217.455 151.106 219.696 150.306 220.61C148.918 218.505 147.236 217.344 145.31 217.144C142.119 216.828 139.276 219.25 138.432 220.053C134.134 216.282 128.185 219.437 128.124 219.473C127.959 219.567 127.898 219.766 127.99 219.93C128.081 220.094 128.295 220.147 128.466 220.059C128.521 220.03 134.262 216.992 138.194 220.763C138.261 220.827 138.347 220.863 138.451 220.863C138.548 220.863 138.634 220.822 138.701 220.751C138.732 220.716 141.856 217.473 145.243 217.813C147.059 217.995 148.655 219.191 149.975 221.361C150.037 221.461 150.14 221.52 150.257 221.525C150.263 221.525 150.269 221.525 150.275 221.525C150.385 221.525 150.489 221.473 150.556 221.39C150.581 221.355 153.081 218.153 155.961 217.813C157.055 217.684 158.083 217.995 159.006 218.728C159.153 218.845 159.373 218.828 159.495 218.687C159.617 218.546 159.599 218.335 159.452 218.218C158.364 217.355 157.159 216.998 155.869 217.15ZM33.1921 145.265C33.3511 145.289 34.849 145.512 36.8849 145.512C40.107 145.512 44.6681 144.96 47.3338 142.21C48.5321 142.984 53.5517 145.899 59.2194 144.086C59.4028 144.028 59.5006 143.84 59.4395 143.664C59.3783 143.488 59.1827 143.394 58.9993 143.453C52.9892 145.377 47.5416 141.541 47.4866 141.5C47.3399 141.394 47.132 141.418 47.0158 141.553C43.0173 146.028 33.3939 144.626 33.296 144.614C33.1065 144.585 32.9292 144.708 32.8986 144.89C32.8742 145.066 33.0026 145.236 33.1921 145.265ZM165.108 179.557C165.254 179.68 165.266 179.885 165.144 180.026C165.071 180.108 158.957 186.712 148.838 186.712C146.472 186.712 143.892 186.354 141.116 185.463C127.769 181.193 86.7078 163.54 80.0803 160.678C86.0659 172.806 91.0855 183.703 90.0767 188.548C89.7343 190.201 88.8661 191.41 87.5088 192.149C84.6902 193.679 80.5755 192.741 79.0654 192.313C79.3894 194.014 79.1387 195.087 78.3133 195.579C76.2713 196.793 71.374 193.451 69.4114 191.996C69.5459 192.923 69.552 194.383 68.6716 195.673C67.6995 197.104 65.9019 197.937 63.328 198.166C62.9061 198.201 62.4903 198.219 62.0807 198.219C55.5754 198.219 49.92 193.937 48.6911 192.94C48.2937 193.263 47.4071 193.914 45.9337 194.623V222.558C45.9337 222.593 45.9214 222.622 45.9153 222.657C46.6306 222.423 47.401 222.27 48.2264 222.27C50.3541 222.27 52.3533 223.273 54.1753 225.255C54.7439 224.188 56.3091 221.69 58.8342 221.132C60.5277 220.763 62.313 221.349 64.1289 222.863C64.8075 221.607 67.7728 220.657 71.056 219.971C70.6892 224.757 67.0208 227.789 64.7464 229.22C64.0066 227.132 63.7192 225.038 63.9455 223.519C63.8782 223.508 63.8171 223.49 63.762 223.443C62.0868 222.012 60.4788 221.455 58.987 221.783C56.1685 222.399 54.5911 225.959 54.5727 225.994C54.5238 226.1 54.4199 226.182 54.3037 226.194C54.1814 226.211 54.0591 226.164 53.9858 226.076C52.2066 223.994 50.2746 222.939 48.2264 222.939C48.2264 222.939 48.2264 222.939 48.2203 222.939C44.7231 222.939 42.0207 226.047 41.9962 226.076C41.9106 226.176 41.7761 226.217 41.6539 226.188C41.5255 226.159 41.4215 226.065 41.391 225.947C41.3665 225.848 40.7062 223.531 37.5514 223.531C34.2926 223.531 32.2811 226.041 32.2628 226.071C32.1955 226.159 32.0916 226.2 31.9693 226.205C31.8531 226.2 31.7492 226.141 31.6881 226.047C31.6697 226.018 29.646 222.874 25.7208 222.874C21.7773 222.874 18.384 227.361 18.3473 227.408C18.2801 227.496 18.17 227.549 18.0661 227.549C17.9988 227.549 17.9255 227.531 17.8643 227.484C17.7054 227.378 17.6687 227.167 17.7848 227.021C17.9316 226.827 21.4166 222.212 25.7208 222.212C27.9341 222.212 29.5726 223.091 30.667 223.971V193.99C29.9211 193.157 29.4198 192.348 29.1446 191.838C26.6134 195.204 23.8866 196.975 21.0375 197.104C17.1429 197.28 14.4955 194.324 14.3855 194.195C14.2632 194.055 14.2815 193.843 14.4283 193.726C14.575 193.609 14.7951 193.626 14.9174 193.767C14.9418 193.797 17.4547 196.606 21.013 196.436C23.7582 196.307 26.4178 194.471 28.9184 190.987C28.9918 190.888 29.1141 190.823 29.2425 190.847C29.3709 190.858 29.4809 190.94 29.5298 191.052C29.5787 191.163 30.0801 192.324 31.1439 193.538C31.2479 193.58 31.3212 193.662 31.3457 193.761C32.8191 195.339 35.2525 196.887 38.8781 196.189C45.6524 194.887 48.4159 192.301 48.4404 192.278C48.5688 192.154 48.7828 192.149 48.9173 192.266C48.9845 192.324 55.8628 198.172 63.2668 197.521C65.6146 197.315 67.2348 196.582 68.0846 195.333C69.2952 193.562 68.5432 191.304 68.531 191.281C68.482 191.14 68.5371 190.981 68.6655 190.899C68.7939 190.817 68.9651 190.823 69.0812 190.917C70.9643 192.407 76.2285 196.043 77.9404 195.034C78.7169 194.577 78.5396 193.087 78.2644 191.92C78.2339 191.803 78.2767 191.679 78.3745 191.597C78.4723 191.515 78.6068 191.492 78.723 191.533C78.778 191.55 84.0177 193.31 87.1725 191.597C88.3464 190.958 89.0984 189.896 89.398 188.448C90.3885 183.709 85.1855 172.578 79.0898 160.262C79.0226 160.203 78.9798 160.121 78.9737 160.033C78.3439 158.76 77.7019 157.476 77.06 156.18C75.3847 152.813 73.6545 149.335 72.022 145.94C71.9609 145.811 71.9915 145.664 72.0893 145.564C72.2544 145.406 76.0451 141.617 72.7129 134.591C69.2891 127.372 58.1922 113.701 58.076 113.566C57.9599 113.419 57.9843 113.208 58.1372 113.097C58.29 112.985 58.5101 113.009 58.6263 113.155C58.7363 113.296 69.8883 127.02 73.3427 134.316C76.473 140.919 73.4955 144.984 72.7435 145.858C74.3454 149.189 76.0451 152.596 77.6836 155.892C78.3317 157.2 78.9798 158.496 79.6156 159.781C82.6237 161.083 127.317 180.378 141.33 184.859C155.539 189.398 164.527 179.715 164.612 179.615C164.741 179.451 164.961 179.434 165.108 179.557ZM45.4017 222.839C45.2978 222.78 45.2305 222.681 45.2305 222.558V194.946C43.702 195.62 41.6539 196.318 39.0065 196.823C35.4848 197.497 32.9965 196.184 31.3579 194.67V224.276C31.3579 224.358 31.3212 224.434 31.2723 224.487C31.5963 224.804 31.8409 225.097 32.0121 225.308C32.7336 224.557 34.6778 222.851 37.5514 222.851C40.2538 222.851 41.4093 224.387 41.8434 225.232C42.4365 224.64 43.7143 223.519 45.4017 222.839ZM216.606 150.954C216.667 150.954 216.734 150.936 216.789 150.901L238.53 138.01C238.696 137.911 238.744 137.705 238.647 137.553C238.543 137.395 238.329 137.348 238.17 137.442L216.428 150.332C216.263 150.432 216.214 150.637 216.312 150.79C216.373 150.901 216.489 150.954 216.606 150.954Z" fill="#193D13"/>
<path d="M43.6335 327C46.3135 327 48.4135 327.64 49.9335 328.92C51.4535 330.2 52.2135 331.96 52.2135 334.2C52.2135 336.44 51.4535 338.2 49.9335 339.48C48.4135 340.74 46.3135 341.37 43.6335 341.37H37.9935V348H35.7735V327H43.6335ZM43.5735 339.42C45.6535 339.42 47.2435 338.97 48.3435 338.07C49.4435 337.15 49.9935 335.86 49.9935 334.2C49.9935 332.5 49.4435 331.2 48.3435 330.3C47.2435 329.38 45.6535 328.92 43.5735 328.92H37.9935V339.42H43.5735ZM70.2159 340.77H57.0159C57.1359 342.41 57.7659 343.74 58.9059 344.76C60.0459 345.76 61.4859 346.26 63.2259 346.26C64.2059 346.26 65.1059 346.09 65.9259 345.75C66.7459 345.39 67.4559 344.87 68.0559 344.19L69.2559 345.57C68.5559 346.41 67.6759 347.05 66.6159 347.49C65.5759 347.93 64.4259 348.15 63.1659 348.15C61.5459 348.15 60.1059 347.81 58.8459 347.13C57.6059 346.43 56.6359 345.47 55.9359 344.25C55.2359 343.03 54.8859 341.65 54.8859 340.11C54.8859 338.57 55.2159 337.19 55.8759 335.97C56.5559 334.75 57.4759 333.8 58.6359 333.12C59.8159 332.44 61.1359 332.1 62.5959 332.1C64.0559 332.1 65.3659 332.44 66.5259 333.12C67.6859 333.8 68.5959 334.75 69.2559 335.97C69.9159 337.17 70.2459 338.55 70.2459 340.11L70.2159 340.77ZM62.5959 333.93C61.0759 333.93 59.7959 334.42 58.7559 335.4C57.7359 336.36 57.1559 337.62 57.0159 339.18H68.2059C68.0659 337.62 67.4759 336.36 66.4359 335.4C65.4159 334.42 64.1359 333.93 62.5959 333.93ZM82.8913 347.04C82.4913 347.4 81.9913 347.68 81.3913 347.88C80.8113 348.06 80.2013 348.15 79.5613 348.15C78.0813 348.15 76.9413 347.75 76.1413 346.95C75.3413 346.15 74.9413 345.02 74.9413 343.56V334.02H72.1213V332.22H74.9413V328.77H77.0713V332.22H81.8713V334.02H77.0713V343.44C77.0713 344.38 77.3013 345.1 77.7613 345.6C78.2413 346.08 78.9213 346.32 79.8013 346.32C80.2413 346.32 80.6613 346.25 81.0613 346.11C81.4813 345.97 81.8413 345.77 82.1413 345.51L82.8913 347.04ZM98.8504 348.15C97.5704 348.15 96.3404 347.97 95.1604 347.61C94.0004 347.23 93.0904 346.76 92.4304 346.2L93.3904 344.52C94.0504 345.04 94.8804 345.47 95.8804 345.81C96.8804 346.13 97.9204 346.29 99.0004 346.29C100.44 346.29 101.5 346.07 102.18 345.63C102.88 345.17 103.23 344.53 103.23 343.71C103.23 343.13 103.04 342.68 102.66 342.36C102.28 342.02 101.8 341.77 101.22 341.61C100.64 341.43 99.8704 341.26 98.9104 341.1C97.6304 340.86 96.6004 340.62 95.8204 340.38C95.0404 340.12 94.3704 339.69 93.8104 339.09C93.2704 338.49 93.0004 337.66 93.0004 336.6C93.0004 335.28 93.5504 334.2 94.6504 333.36C95.7504 332.52 97.2804 332.1 99.2404 332.1C100.26 332.1 101.28 332.24 102.3 332.52C103.32 332.78 104.16 333.13 104.82 333.57L103.89 335.28C102.59 334.38 101.04 333.93 99.2404 333.93C97.8804 333.93 96.8504 334.17 96.1504 334.65C95.4704 335.13 95.1304 335.76 95.1304 336.54C95.1304 337.14 95.3204 337.62 95.7004 337.98C96.1004 338.34 96.5904 338.61 97.1704 338.79C97.7504 338.95 98.5504 339.12 99.5704 339.3C100.83 339.54 101.84 339.78 102.6 340.02C103.36 340.26 104.01 340.67 104.55 341.25C105.09 341.83 105.36 342.63 105.36 343.65C105.36 345.03 104.78 346.13 103.62 346.95C102.48 347.75 100.89 348.15 98.8504 348.15ZM109.298 332.22H111.428V348H109.298V332.22ZM110.378 328.77C109.938 328.77 109.568 328.62 109.268 328.32C108.968 328.02 108.818 327.66 108.818 327.24C108.818 326.84 108.968 326.49 109.268 326.19C109.568 325.89 109.938 325.74 110.378 325.74C110.818 325.74 111.188 325.89 111.488 326.19C111.788 326.47 111.938 326.81 111.938 327.21C111.938 327.65 111.788 328.02 111.488 328.32C111.188 328.62 110.818 328.77 110.378 328.77ZM125.665 347.04C125.265 347.4 124.765 347.68 124.165 347.88C123.585 348.06 122.975 348.15 122.335 348.15C120.855 348.15 119.715 347.75 118.915 346.95C118.115 346.15 117.715 345.02 117.715 343.56V334.02H114.895V332.22H117.715V328.77H119.845V332.22H124.645V334.02H119.845V343.44C119.845 344.38 120.075 345.1 120.535 345.6C121.015 346.08 121.695 346.32 122.575 346.32C123.015 346.32 123.435 346.25 123.835 346.11C124.255 345.97 124.615 345.77 124.915 345.51L125.665 347.04ZM137.442 347.04C137.042 347.4 136.542 347.68 135.942 347.88C135.362 348.06 134.752 348.15 134.112 348.15C132.632 348.15 131.492 347.75 130.692 346.95C129.892 346.15 129.492 345.02 129.492 343.56V334.02H126.672V332.22H129.492V328.77H131.622V332.22H136.422V334.02H131.622V343.44C131.622 344.38 131.852 345.1 132.312 345.6C132.792 346.08 133.472 346.32 134.352 346.32C134.792 346.32 135.212 346.25 135.612 346.11C136.032 345.97 136.392 345.77 136.692 345.51L137.442 347.04ZM141.32 332.22H143.45V348H141.32V332.22ZM142.4 328.77C141.96 328.77 141.59 328.62 141.29 328.32C140.99 328.02 140.84 327.66 140.84 327.24C140.84 326.84 140.99 326.49 141.29 326.19C141.59 325.89 141.96 325.74 142.4 325.74C142.84 325.74 143.21 325.89 143.51 326.19C143.81 326.47 143.96 326.81 143.96 327.21C143.96 327.65 143.81 328.02 143.51 328.32C143.21 328.62 142.84 328.77 142.4 328.77ZM157.416 332.1C159.396 332.1 160.966 332.68 162.126 333.84C163.306 334.98 163.896 336.65 163.896 338.85V348H161.766V339.06C161.766 337.42 161.356 336.17 160.536 335.31C159.716 334.45 158.546 334.02 157.026 334.02C155.326 334.02 153.976 334.53 152.976 335.55C151.996 336.55 151.506 337.94 151.506 339.72V348H149.376V332.22H151.416V335.13C151.996 334.17 152.796 333.43 153.816 332.91C154.856 332.37 156.056 332.1 157.416 332.1ZM184.348 332.22V346.08C184.348 348.76 183.688 350.74 182.368 352.02C181.068 353.32 179.098 353.97 176.458 353.97C174.998 353.97 173.608 353.75 172.288 353.31C170.988 352.89 169.928 352.3 169.108 351.54L170.188 349.92C170.948 350.6 171.868 351.13 172.948 351.51C174.048 351.89 175.198 352.08 176.398 352.08C178.398 352.08 179.868 351.61 180.808 350.67C181.748 349.75 182.218 348.31 182.218 346.35V344.34C181.558 345.34 180.688 346.1 179.608 346.62C178.548 347.14 177.368 347.4 176.068 347.4C174.588 347.4 173.238 347.08 172.018 346.44C170.818 345.78 169.868 344.87 169.168 343.71C168.488 342.53 168.148 341.2 168.148 339.72C168.148 338.24 168.488 336.92 169.168 335.76C169.868 334.6 170.818 333.7 172.018 333.06C173.218 332.42 174.568 332.1 176.068 332.1C177.408 332.1 178.618 332.37 179.698 332.91C180.778 333.45 181.648 334.23 182.308 335.25V332.22H184.348ZM176.278 345.51C177.418 345.51 178.448 345.27 179.368 344.79C180.288 344.29 180.998 343.6 181.498 342.72C182.018 341.84 182.278 340.84 182.278 339.72C182.278 338.6 182.018 337.61 181.498 336.75C180.998 335.87 180.288 335.19 179.368 334.71C178.468 334.21 177.438 333.96 176.278 333.96C175.138 333.96 174.108 334.2 173.188 334.68C172.288 335.16 171.578 335.84 171.058 336.72C170.558 337.6 170.308 338.6 170.308 339.72C170.308 340.84 170.558 341.84 171.058 342.72C171.578 343.6 172.288 344.29 173.188 344.79C174.108 345.27 175.138 345.51 176.278 345.51ZM221.316 332.22L215.346 348H213.336L208.356 335.07L203.376 348H201.366L195.426 332.22H197.466L202.416 345.63L207.486 332.22H209.316L214.356 345.63L219.366 332.22H221.316ZM224.523 332.22H226.653V348H224.523V332.22ZM225.603 328.77C225.163 328.77 224.793 328.62 224.493 328.32C224.193 328.02 224.043 327.66 224.043 327.24C224.043 326.84 224.193 326.49 224.493 326.19C224.793 325.89 225.163 325.74 225.603 325.74C226.043 325.74 226.413 325.89 226.713 326.19C227.013 326.47 227.163 326.81 227.163 327.21C227.163 327.65 227.013 328.02 226.713 328.32C226.413 328.62 226.043 328.77 225.603 328.77ZM240.889 347.04C240.489 347.4 239.989 347.68 239.389 347.88C238.809 348.06 238.199 348.15 237.559 348.15C236.079 348.15 234.939 347.75 234.139 346.95C233.339 346.15 232.939 345.02 232.939 343.56V334.02H230.119V332.22H232.939V328.77H235.069V332.22H239.869V334.02H235.069V343.44C235.069 344.38 235.299 345.1 235.759 345.6C236.239 346.08 236.919 346.32 237.799 346.32C238.239 346.32 238.659 346.25 239.059 346.11C239.479 345.97 239.839 345.77 240.139 345.51L240.889 347.04ZM252.807 332.1C254.787 332.1 256.357 332.68 257.517 333.84C258.697 334.98 259.287 336.65 259.287 338.85V348H257.157V339.06C257.157 337.42 256.747 336.17 255.927 335.31C255.107 334.45 253.937 334.02 252.417 334.02C250.717 334.02 249.367 334.53 248.367 335.55C247.387 336.55 246.897 337.94 246.897 339.72V348H244.767V325.74H246.897V334.98C247.477 334.06 248.277 333.35 249.297 332.85C250.317 332.35 251.487 332.1 252.807 332.1ZM278.441 332.1C280.501 332.1 282.081 332.62 283.181 333.66C284.281 334.68 284.831 336.2 284.831 338.22V348H282.791V345.54C282.311 346.36 281.601 347 280.661 347.46C279.741 347.92 278.641 348.15 277.361 348.15C275.601 348.15 274.201 347.73 273.161 346.89C272.121 346.05 271.601 344.94 271.601 343.56C271.601 342.22 272.081 341.14 273.041 340.32C274.021 339.5 275.571 339.09 277.691 339.09H282.701V338.13C282.701 336.77 282.321 335.74 281.561 335.04C280.801 334.32 279.691 333.96 278.231 333.96C277.231 333.96 276.271 334.13 275.351 334.47C274.431 334.79 273.641 335.24 272.981 335.82L272.021 334.23C272.821 333.55 273.781 333.03 274.901 332.67C276.021 332.29 277.201 332.1 278.441 332.1ZM277.691 346.47C278.891 346.47 279.921 346.2 280.781 345.66C281.641 345.1 282.281 344.3 282.701 343.26V340.68H277.751C275.051 340.68 273.701 341.62 273.701 343.5C273.701 344.42 274.051 345.15 274.751 345.69C275.451 346.21 276.431 346.47 277.691 346.47ZM24.9231 359.74H27.0531V382H24.9231V359.74ZM32.9798 366.22H35.1098V382H32.9798V366.22ZM34.0598 362.77C33.6198 362.77 33.2498 362.62 32.9498 362.32C32.6498 362.02 32.4998 361.66 32.4998 361.24C32.4998 360.84 32.6498 360.49 32.9498 360.19C33.2498 359.89 33.6198 359.74 34.0598 359.74C34.4998 359.74 34.8698 359.89 35.1698 360.19C35.4698 360.47 35.6198 360.81 35.6198 361.21C35.6198 361.65 35.4698 362.02 35.1698 362.32C34.8698 362.62 34.4998 362.77 34.0598 362.77ZM49.3464 381.04C48.9464 381.4 48.4464 381.68 47.8464 381.88C47.2664 382.06 46.6564 382.15 46.0164 382.15C44.5364 382.15 43.3964 381.75 42.5964 380.95C41.7964 380.15 41.3964 379.02 41.3964 377.56V368.02H38.5764V366.22H41.3964V362.77H43.5264V366.22H48.3264V368.02H43.5264V377.44C43.5264 378.38 43.7564 379.1 44.2164 379.6C44.6964 380.08 45.3764 380.32 46.2564 380.32C46.6964 380.32 47.1164 380.25 47.5164 380.11C47.9364 379.97 48.2964 379.77 48.5964 379.51L49.3464 381.04ZM61.1238 381.04C60.7238 381.4 60.2238 381.68 59.6238 381.88C59.0438 382.06 58.4338 382.15 57.7938 382.15C56.3138 382.15 55.1738 381.75 54.3738 380.95C53.5738 380.15 53.1738 379.02 53.1738 377.56V368.02H50.3538V366.22H53.1738V362.77H55.3038V366.22H60.1038V368.02H55.3038V377.44C55.3038 378.38 55.5338 379.1 55.9938 379.6C56.4738 380.08 57.1538 380.32 58.0338 380.32C58.4738 380.32 58.8938 380.25 59.2938 380.11C59.7138 379.97 60.0738 379.77 60.3738 379.51L61.1238 381.04ZM65.0013 359.74H67.1313V382H65.0013V359.74ZM86.7979 374.77H73.5979C73.7179 376.41 74.3479 377.74 75.4879 378.76C76.6279 379.76 78.0679 380.26 79.8079 380.26C80.7879 380.26 81.6879 380.09 82.5079 379.75C83.3279 379.39 84.0379 378.87 84.6379 378.19L85.8379 379.57C85.1379 380.41 84.2579 381.05 83.1979 381.49C82.1579 381.93 81.0079 382.15 79.7479 382.15C78.1279 382.15 76.6879 381.81 75.4279 381.13C74.1879 380.43 73.2179 379.47 72.5179 378.25C71.8179 377.03 71.4679 375.65 71.4679 374.11C71.4679 372.57 71.7979 371.19 72.4579 369.97C73.1379 368.75 74.0579 367.8 75.2179 367.12C76.3979 366.44 77.7179 366.1 79.1779 366.1C80.6379 366.1 81.9479 366.44 83.1079 367.12C84.2679 367.8 85.1779 368.75 85.8379 369.97C86.4979 371.17 86.8279 372.55 86.8279 374.11L86.7979 374.77ZM79.1779 367.93C77.6579 367.93 76.3779 368.42 75.3379 369.4C74.3179 370.36 73.7379 371.62 73.5979 373.18H84.7879C84.6479 371.62 84.0579 370.36 83.0179 369.4C81.9979 368.42 80.7179 367.93 79.1779 367.93ZM113.625 366.22V380.08C113.625 382.76 112.965 384.74 111.645 386.02C110.345 387.32 108.375 387.97 105.735 387.97C104.275 387.97 102.885 387.75 101.565 387.31C100.265 386.89 99.2049 386.3 98.3849 385.54L99.4649 383.92C100.225 384.6 101.145 385.13 102.225 385.51C103.325 385.89 104.475 386.08 105.675 386.08C107.675 386.08 109.145 385.61 110.085 384.67C111.025 383.75 111.495 382.31 111.495 380.35V378.34C110.835 379.34 109.965 380.1 108.885 380.62C107.825 381.14 106.645 381.4 105.345 381.4C103.865 381.4 102.515 381.08 101.295 380.44C100.095 379.78 99.1449 378.87 98.4449 377.71C97.7649 376.53 97.4249 375.2 97.4249 373.72C97.4249 372.24 97.7649 370.92 98.4449 369.76C99.1449 368.6 100.095 367.7 101.295 367.06C102.495 366.42 103.845 366.1 105.345 366.1C106.685 366.1 107.895 366.37 108.975 366.91C110.055 367.45 110.925 368.23 111.585 369.25V366.22H113.625ZM105.555 379.51C106.695 379.51 107.725 379.27 108.645 378.79C109.565 378.29 110.275 377.6 110.775 376.72C111.295 375.84 111.555 374.84 111.555 373.72C111.555 372.6 111.295 371.61 110.775 370.75C110.275 369.87 109.565 369.19 108.645 368.71C107.745 368.21 106.715 367.96 105.555 367.96C104.415 367.96 103.385 368.2 102.465 368.68C101.565 369.16 100.855 369.84 100.335 370.72C99.8349 371.6 99.5849 372.6 99.5849 373.72C99.5849 374.84 99.8349 375.84 100.335 376.72C100.855 377.6 101.565 378.29 102.465 378.79C103.385 379.27 104.415 379.51 105.555 379.51ZM119.581 366.22H121.711V382H119.581V366.22ZM120.661 362.77C120.221 362.77 119.851 362.62 119.551 362.32C119.251 362.02 119.101 361.66 119.101 361.24C119.101 360.84 119.251 360.49 119.551 360.19C119.851 359.89 120.221 359.74 120.661 359.74C121.101 359.74 121.471 359.89 121.771 360.19C122.071 360.47 122.221 360.81 122.221 361.21C122.221 361.65 122.071 362.02 121.771 362.32C121.471 362.62 121.101 362.77 120.661 362.77ZM140.898 366.22L133.878 382H131.688L124.698 366.22H126.918L132.828 379.66L138.798 366.22H140.898ZM157.198 374.77H143.998C144.118 376.41 144.748 377.74 145.888 378.76C147.028 379.76 148.468 380.26 150.208 380.26C151.188 380.26 152.088 380.09 152.908 379.75C153.728 379.39 154.438 378.87 155.038 378.19L156.238 379.57C155.538 380.41 154.658 381.05 153.598 381.49C152.558 381.93 151.408 382.15 150.148 382.15C148.528 382.15 147.088 381.81 145.828 381.13C144.588 380.43 143.618 379.47 142.918 378.25C142.218 377.03 141.868 375.65 141.868 374.11C141.868 372.57 142.198 371.19 142.858 369.97C143.538 368.75 144.458 367.8 145.618 367.12C146.798 366.44 148.118 366.1 149.578 366.1C151.038 366.1 152.348 366.44 153.508 367.12C154.668 367.8 155.578 368.75 156.238 369.97C156.898 371.17 157.228 372.55 157.228 374.11L157.198 374.77ZM149.578 367.93C148.058 367.93 146.778 368.42 145.738 369.4C144.718 370.36 144.138 371.62 143.998 373.18H155.188C155.048 371.62 154.458 370.36 153.418 369.4C152.398 368.42 151.118 367.93 149.578 367.93ZM174.935 366.1C176.995 366.1 178.575 366.62 179.675 367.66C180.775 368.68 181.325 370.2 181.325 372.22V382H179.285V379.54C178.805 380.36 178.095 381 177.155 381.46C176.235 381.92 175.135 382.15 173.855 382.15C172.095 382.15 170.695 381.73 169.655 380.89C168.615 380.05 168.095 378.94 168.095 377.56C168.095 376.22 168.575 375.14 169.535 374.32C170.515 373.5 172.065 373.09 174.185 373.09H179.195V372.13C179.195 370.77 178.815 369.74 178.055 369.04C177.295 368.32 176.185 367.96 174.725 367.96C173.725 367.96 172.765 368.13 171.845 368.47C170.925 368.79 170.135 369.24 169.475 369.82L168.515 368.23C169.315 367.55 170.275 367.03 171.395 366.67C172.515 366.29 173.695 366.1 174.935 366.1ZM174.185 380.47C175.385 380.47 176.415 380.2 177.275 379.66C178.135 379.1 178.775 378.3 179.195 377.26V374.68H174.245C171.545 374.68 170.195 375.62 170.195 377.5C170.195 378.42 170.545 379.15 171.245 379.69C171.945 380.21 172.925 380.47 174.185 380.47ZM195.151 366.1C197.131 366.1 198.701 366.68 199.861 367.84C201.041 368.98 201.631 370.65 201.631 372.85V382H199.501V373.06C199.501 371.42 199.091 370.17 198.271 369.31C197.451 368.45 196.281 368.02 194.761 368.02C193.061 368.02 191.711 368.53 190.711 369.55C189.731 370.55 189.241 371.94 189.241 373.72V382H187.111V366.22H189.151V369.13C189.731 368.17 190.531 367.43 191.551 366.91C192.591 366.37 193.791 366.1 195.151 366.1ZM221.872 359.74V382H219.832V378.88C219.192 379.94 218.342 380.75 217.282 381.31C216.242 381.87 215.062 382.15 213.742 382.15C212.262 382.15 210.922 381.81 209.722 381.13C208.522 380.45 207.582 379.5 206.902 378.28C206.222 377.06 205.882 375.67 205.882 374.11C205.882 372.55 206.222 371.16 206.902 369.94C207.582 368.72 208.522 367.78 209.722 367.12C210.922 366.44 212.262 366.1 213.742 366.1C215.022 366.1 216.172 366.37 217.192 366.91C218.232 367.43 219.082 368.2 219.742 369.22V359.74H221.872ZM213.922 380.26C215.022 380.26 216.012 380.01 216.892 379.51C217.792 378.99 218.492 378.26 218.992 377.32C219.512 376.38 219.772 375.31 219.772 374.11C219.772 372.91 219.512 371.84 218.992 370.9C218.492 369.96 217.792 369.24 216.892 368.74C216.012 368.22 215.022 367.96 213.922 367.96C212.802 367.96 211.792 368.22 210.892 368.74C210.012 369.24 209.312 369.96 208.792 370.9C208.292 371.84 208.042 372.91 208.042 374.11C208.042 375.31 208.292 376.38 208.792 377.32C209.312 378.26 210.012 378.99 210.892 379.51C211.792 380.01 212.802 380.26 213.922 380.26ZM243.966 381.04C243.566 381.4 243.066 381.68 242.466 381.88C241.886 382.06 241.276 382.15 240.636 382.15C239.156 382.15 238.016 381.75 237.216 380.95C236.416 380.15 236.016 379.02 236.016 377.56V368.02H233.196V366.22H236.016V362.77H238.146V366.22H242.946V368.02H238.146V377.44C238.146 378.38 238.376 379.1 238.836 379.6C239.316 380.08 239.996 380.32 240.876 380.32C241.316 380.32 241.736 380.25 242.136 380.11C242.556 379.97 242.916 379.77 243.216 379.51L243.966 381.04ZM253.363 366.1C255.423 366.1 257.003 366.62 258.103 367.66C259.203 368.68 259.753 370.2 259.753 372.22V382H257.713V379.54C257.233 380.36 256.523 381 255.583 381.46C254.663 381.92 253.563 382.15 252.283 382.15C250.523 382.15 249.123 381.73 248.083 380.89C247.043 380.05 246.523 378.94 246.523 377.56C246.523 376.22 247.003 375.14 247.963 374.32C248.943 373.5 250.493 373.09 252.613 373.09H257.623V372.13C257.623 370.77 257.243 369.74 256.483 369.04C255.723 368.32 254.613 367.96 253.153 367.96C252.153 367.96 251.193 368.13 250.273 368.47C249.353 368.79 248.563 369.24 247.903 369.82L246.943 368.23C247.743 367.55 248.703 367.03 249.823 366.67C250.943 366.29 252.123 366.1 253.363 366.1ZM252.613 380.47C253.813 380.47 254.843 380.2 255.703 379.66C256.563 379.1 257.203 378.3 257.623 377.26V374.68H252.673C249.973 374.68 248.623 375.62 248.623 377.5C248.623 378.42 248.973 379.15 249.673 379.69C250.373 380.21 251.353 380.47 252.613 380.47ZM271.388 374.08L267.668 377.5V382H265.538V359.74H267.668V374.83L277.088 366.22H279.728L272.978 372.67L280.358 382H277.748L271.388 374.08ZM296.651 374.77H283.451C283.571 376.41 284.201 377.74 285.341 378.76C286.481 379.76 287.921 380.26 289.661 380.26C290.641 380.26 291.541 380.09 292.361 379.75C293.181 379.39 293.891 378.87 294.491 378.19L295.691 379.57C294.991 380.41 294.111 381.05 293.051 381.49C292.011 381.93 290.861 382.15 289.601 382.15C287.981 382.15 286.541 381.81 285.281 381.13C284.041 380.43 283.071 379.47 282.371 378.25C281.671 377.03 281.321 375.65 281.321 374.11C281.321 372.57 281.651 371.19 282.311 369.97C282.991 368.75 283.911 367.8 285.071 367.12C286.251 366.44 287.571 366.1 289.031 366.1C290.491 366.1 291.801 366.44 292.961 367.12C294.121 367.8 295.031 368.75 295.691 369.97C296.351 371.17 296.681 372.55 296.681 374.11L296.651 374.77ZM289.031 367.93C287.511 367.93 286.231 368.42 285.191 369.4C284.171 370.36 283.591 371.62 283.451 373.18H294.641C294.501 371.62 293.911 370.36 292.871 369.4C291.851 368.42 290.571 367.93 289.031 367.93Z" fill="black"/>
</svg>
