<svg width="270" height="103" viewBox="0 0 270 103" fill="none" xmlns="http://www.w3.org/2000/svg">
<path d="M0.519531 97.361C0.80599 97.146 1.27149 96.7884 1.91602 96.2871C2.48894 95.7858 3.20508 94.8548 4.06446 93.4941C4.85222 92.1335 5.7474 90.1641 6.75 87.5859C7.75261 85.0078 8.79102 81.4987 9.86524 77.0586C10.4381 74.6953 11.1901 71.6875 12.121 68.0352C13.052 64.3828 14.0546 60.4798 15.1289 56.3262C16.2747 52.1725 17.4205 47.9115 18.5664 43.543C19.7122 39.1029 20.8222 34.9134 21.8964 30.9746C22.9707 26.9642 23.9375 23.3477 24.7968 20.125C25.6562 16.9023 26.3365 14.3958 26.8378 12.6055C25.4772 13.4648 24.1523 14.4316 22.8632 15.5059C21.7174 16.4368 20.5 17.5111 19.2109 18.7285C17.9218 19.8743 16.6686 21.0918 15.4511 22.3809C14.5201 21.5931 13.804 20.7337 13.3027 19.8027C13.0162 19.373 12.7656 18.9076 12.5507 18.4062C12.121 17.332 11.9062 16.222 11.9062 15.0762C11.9062 13.9303 12.8014 12.7487 14.5918 11.5312C15.5227 10.8867 16.9192 9.9557 18.7812 8.7383C20.7148 7.5208 23.0781 6.33919 25.871 5.19336C28.664 3.97591 31.9225 2.9375 35.6464 2.07812C39.3704 1.21875 43.4882 0.789064 48 0.789064C52.5117 0.789064 56.1282 1.68424 58.8496 3.47461C61.6425 5.26497 63.7552 7.4492 65.1875 10.0273C66.6914 12.6055 67.6582 15.3268 68.0878 18.1914C68.5175 21.056 68.625 23.5625 68.4101 25.7109C67.9804 29.7214 66.6914 33.9108 64.5429 38.2793C62.3945 42.6478 59.4225 46.694 55.6269 50.418C51.8313 54.0703 47.2122 57.1855 41.7695 59.7637C36.3268 62.3418 30.0963 63.8099 23.0781 64.168C22.5052 66.8893 21.9322 69.6823 21.3593 72.5469C20.7864 75.4115 20.1777 78.2402 19.5332 81.0332C18.8886 83.7546 18.2083 86.2969 17.4921 88.6602C16.8476 91.0951 16.1673 93.1719 15.4511 94.8906C14.735 96.7526 13.804 98.221 12.6582 99.295C11.5123 100.441 9.6862 101.014 7.17969 101.014C5.89063 101.014 4.70899 100.691 3.63477 100.047C2.48894 99.402 1.45052 98.507 0.519531 97.361ZM25.9785 48.377C25.7636 49.5228 25.4772 51.0267 25.1191 52.8887C24.8326 54.679 24.4746 56.7201 24.0449 59.0117C25.9785 58.7253 28.1269 58.224 30.4902 57.5078C32.8535 56.7201 35.2168 55.6816 37.58 54.3926C39.9433 53.1035 42.235 51.5638 44.455 49.7734C46.7467 47.9115 48.8235 45.7988 50.6855 43.4355C52.5475 41.0007 54.0872 38.2793 55.3046 35.2715C56.5937 32.1921 57.4173 28.7904 57.7753 25.0664C58.1334 21.4857 57.9186 18.5137 57.1308 16.1504C56.4147 13.7155 55.3404 11.7819 53.9082 10.3496C52.4759 8.8457 50.8287 7.8073 48.9668 7.2344C47.1048 6.58984 45.2428 6.26758 43.3808 6.26758C41.5904 6.26758 39.8359 6.51823 38.1171 7.0195C36.3984 7.5208 34.6796 8.1654 32.9609 8.9531C33.1757 9.0247 33.4264 9.2038 33.7128 9.4902C34.1425 9.9199 34.4648 10.5286 34.6796 11.3164C32.9609 18.263 31.5286 24.0638 30.3828 28.7188C29.3085 33.3737 28.4492 37.1693 27.8046 40.1055C27.0169 43.543 26.4082 46.3001 25.9785 48.377ZM115.461 59.6562C113.312 62.8073 110.878 65.8867 108.156 68.8945C105.435 71.8307 102.534 74.4805 99.455 76.8438C96.4472 79.1354 93.332 80.9974 90.1093 82.4297C86.9583 83.862 83.8789 84.5781 80.871 84.5781C79.2955 84.5781 77.5768 84.1842 75.7148 83.3965C73.9244 82.6803 72.2773 81.5345 70.7734 79.959C69.2695 78.3835 68.052 76.3424 67.121 73.8359C66.2617 71.3294 66.011 68.2858 66.3691 64.7051C66.6556 61.7689 67.5507 58.6895 69.0546 55.4668C70.6302 52.1725 72.5279 49.1647 74.748 46.4434C77.0397 43.722 79.582 41.4661 82.375 39.6758C85.2395 37.8854 88.1042 36.9902 90.9688 36.9902C93.6902 36.9902 95.6595 37.6706 96.8769 39.0312C98.0944 40.3919 98.6315 42.0749 98.4882 44.0801C98.2734 46.3001 97.6289 48.3411 96.5546 50.2031C95.552 52.0651 94.3346 53.748 92.9023 55.252C91.47 56.7559 89.9303 58.1165 88.2832 59.334C86.7076 60.5514 85.2037 61.6615 83.7714 62.6641C82.1959 63.7383 80.6921 64.7767 79.2598 65.7793C77.8275 66.7103 76.5742 67.5697 75.5 68.3574C75.5716 70.1478 75.8939 71.6517 76.4669 72.8691C77.0398 74.0866 77.7558 75.0892 78.6152 75.877C79.4746 76.5931 80.4414 77.1302 81.5156 77.4883C82.6614 77.7747 83.8072 77.918 84.9531 77.918C87.388 77.918 89.9303 77.166 92.58 75.6621C95.2298 74.0866 97.8079 72.2246 100.314 70.0762C102.893 67.8561 105.256 65.5645 107.404 63.2012C109.624 60.8379 111.45 58.7969 112.883 57.0781C113.384 56.5052 113.885 56.1829 114.387 56.1113C114.96 55.9681 115.389 56.0397 115.676 56.3262C116.034 56.541 116.213 56.9707 116.213 57.6152C116.213 58.1882 115.962 58.8685 115.461 59.6562ZM87.9609 43.1133C87.1015 43.1133 86.0631 43.543 84.8457 44.4023C83.6998 45.2617 82.554 46.515 81.4082 48.1621C80.2623 49.7376 79.1881 51.707 78.1855 54.0703C77.1829 56.362 76.4309 59.0117 75.9296 62.0195C76.789 61.375 77.72 60.7305 78.7226 60.0859C79.7252 59.3698 80.7278 58.6178 81.7304 57.8301C84.8098 55.4668 86.9583 53.39 88.1757 51.5996C89.3932 49.8092 90.0736 48.2695 90.2169 46.9805C90.3601 45.6198 90.2168 44.653 89.7871 44.0801C89.3574 43.4355 88.7487 43.1133 87.9609 43.1133ZM147.365 54.8223C147.652 54.3926 148.01 54.1419 148.439 54.0703C148.941 53.9271 149.335 53.9629 149.621 54.1777C149.908 54.3926 150.051 54.7507 150.051 55.252C150.122 55.7533 149.943 56.4336 149.514 57.293C148.081 60.0143 146.184 62.9505 143.82 66.1016C141.529 69.2526 139.094 72.2246 136.516 75.0176C133.937 77.7389 131.431 79.9948 128.996 81.7852C126.561 83.5755 124.52 84.4707 122.873 84.4707C120.51 84.4707 118.54 84.0052 116.965 83.0742C115.389 82.1432 114.136 80.9974 113.205 79.6367C112.346 78.276 111.737 76.8079 111.379 75.2324C111.021 73.5853 110.913 72.0814 111.057 70.7207C111.128 69.5749 111.379 67.5339 111.809 64.5977C112.238 61.5898 112.811 58.1523 113.527 54.2852C114.243 50.3464 115.031 46.1569 115.891 41.7168C116.822 37.2051 117.788 32.8724 118.791 28.7188C117.574 28.862 116.356 29.0052 115.139 29.1484C113.921 29.2917 112.811 29.3633 111.809 29.3633C109.517 29.3633 107.368 29.1126 105.363 28.6113C103.286 28.0384 101.747 27.5013 100.744 27C100.171 26.7135 99.9205 26.3197 99.9921 25.8184C100.064 25.2454 100.279 24.7083 100.637 24.207C100.995 23.6341 101.46 23.1686 102.033 22.8105C102.534 22.3809 103 22.166 103.43 22.166C104.79 22.3092 106.258 22.4525 107.834 22.5957C109.409 22.6673 111.128 22.6673 112.99 22.5957C114.351 22.5241 115.64 22.4167 116.857 22.2734C118.146 22.1302 119.4 21.9512 120.617 21.7363C121.548 18.2988 122.443 15.3268 123.303 12.8203C124.234 10.2422 125.057 8.4518 125.773 7.4492C125.988 7.0911 126.454 6.80469 127.17 6.58984C127.958 6.30339 128.781 6.12435 129.641 6.05273C130.5 5.90951 131.324 5.90951 132.111 6.05273C132.899 6.12435 133.472 6.375 133.83 6.80469C134.188 7.3776 134.331 8.8457 134.26 11.209C134.188 13.5723 133.794 16.5801 133.078 20.2324C136.086 20.2324 138.736 20.4115 141.027 20.7695C143.391 21.056 145.396 21.4141 147.043 21.8438C148.69 22.2018 150.015 22.5957 151.018 23.0254C152.02 23.3835 152.772 23.6341 153.273 23.7773C153.775 23.9206 154.025 24.2786 154.025 24.8516C154.097 25.4245 153.99 26.0332 153.703 26.6777C153.488 27.2507 153.094 27.752 152.521 28.1816C151.949 28.6113 151.304 28.7546 150.588 28.6113C149.872 28.5397 149.048 28.3965 148.117 28.1816C147.258 27.9668 146.184 27.7878 144.894 27.6445C143.677 27.5013 142.209 27.3581 140.49 27.2148C138.771 27.0716 136.766 27 134.475 27C134.045 27 133.544 27.0358 132.971 27.1074C132.469 27.1074 131.932 27.1074 131.359 27.1074C131.073 28.2533 130.786 29.3991 130.5 30.5449C130.285 31.6191 129.963 32.765 129.533 33.9824C128.602 36.847 127.528 39.9622 126.31 43.3281C125.236 46.2643 123.947 49.6302 122.443 53.4258C120.939 57.2214 119.256 61.2676 117.394 65.5645C116.965 68.6439 117.001 71.0072 117.502 72.6543C118.075 74.2298 118.755 75.3757 119.543 76.0918C120.474 76.8796 121.62 77.3092 122.98 77.3809C124.055 77.5241 125.344 77.166 126.848 76.3066C128.423 75.3757 130.034 74.1582 131.682 72.6543C133.329 71.1504 134.976 69.5033 136.623 67.7129C138.342 65.9225 139.917 64.168 141.35 62.4492C142.782 60.7305 144.035 59.1908 145.109 57.8301C146.184 56.3978 146.936 55.3952 147.365 54.8223ZM180.344 32.6934C180.272 32.4785 180.487 31.9414 180.988 31.082C181.49 30.151 182.027 29.041 182.6 27.752C183.244 26.3913 183.853 24.8874 184.426 23.2402C185.07 21.5215 185.5 19.7669 185.715 17.9766C186.001 16.1862 186.001 14.3958 185.715 12.6055C185.428 10.8151 184.676 9.0964 183.459 7.4492C182.743 6.58984 181.669 6.12435 180.236 6.05273C178.876 5.90951 177.3 6.12435 175.51 6.69727C173.791 7.1986 171.965 8.0221 170.031 9.168C168.169 10.2422 166.45 11.5312 164.875 13.0352C163.299 14.4674 161.939 16.0788 160.793 17.8691C159.719 19.6595 159.11 21.4857 158.967 23.3477C158.824 24.8516 158.859 26.248 159.074 27.5371C159.361 28.8262 159.719 30.0078 160.148 31.082C160.578 32.1562 161.044 33.1589 161.545 34.0898C162.046 35.0208 162.512 35.8444 162.941 36.5605C163.514 37.5632 164.409 38.6732 165.627 39.8906C166.844 41.1081 168.169 42.5046 169.602 44.0801C171.034 45.584 172.466 47.3027 173.898 49.2363C175.331 51.1699 176.584 53.3542 177.658 55.7891C178.732 58.224 179.484 60.9453 179.914 63.9531C180.344 66.9609 180.308 70.291 179.807 73.9434C179.019 79.2428 177.766 83.6471 176.047 87.1562C174.328 90.737 172.43 93.6016 170.353 95.75C168.348 97.898 166.307 99.438 164.23 100.369C162.154 101.372 160.435 102.016 159.074 102.303C158 102.518 156.711 102.697 155.207 102.84C153.775 103.055 152.235 103.019 150.588 102.732C149.012 102.518 147.401 102.016 145.754 101.229C144.107 100.512 142.639 99.367 141.35 97.791C139.846 96.0007 138.664 94.0671 137.805 91.9902C137.017 90.1999 136.444 88.123 136.086 85.7598C135.656 83.4681 135.835 81.069 136.623 78.5625C137.196 77.918 137.805 77.3451 138.449 76.8438C139.094 76.3424 139.738 75.9128 140.383 75.5547C141.099 75.125 141.851 74.7311 142.639 74.373C143.57 74.0866 144.501 73.8359 145.432 73.6211C146.219 73.4779 147.043 73.4062 147.902 73.4062C148.833 73.3346 149.693 73.4421 150.48 73.7285C149.406 74.946 148.654 76.0918 148.225 77.166C147.938 77.7389 147.723 78.2402 147.58 78.6699C147.294 80.0306 147.186 81.6419 147.258 83.5039C147.401 85.4375 147.795 87.2637 148.439 88.9824C149.156 90.7728 150.158 92.2767 151.447 93.4941C152.736 94.7832 154.455 95.4635 156.603 95.5352C161.831 95.6784 166.271 91.5964 169.924 83.2891C171.141 80.7109 171.75 78.097 171.75 75.4473C171.822 72.7975 171.499 70.2552 170.783 67.8203C170.139 65.3854 169.243 63.1296 168.098 61.0527C167.023 58.9043 165.913 57.0781 164.768 55.5742C163.622 54.0703 162.225 52.459 160.578 50.7402C159.003 48.9499 157.427 47.0163 155.852 44.9395C154.276 42.8626 152.844 40.6068 151.555 38.1719C150.337 35.737 149.514 33.0872 149.084 30.2227C148.511 26.2122 148.869 22.5599 150.158 19.2656C151.519 15.8997 153.309 12.9635 155.529 10.457C157.821 7.9505 160.292 5.90951 162.941 4.33398C165.663 2.75846 168.062 1.75586 170.139 1.32617C181.669 -0.965487 189.224 0.968103 192.805 7.127C194.309 9.4902 195.132 11.9967 195.275 14.6465C195.419 17.2962 195.24 19.7669 194.738 22.0586C194.309 24.2786 193.736 26.1764 193.019 27.752C192.375 29.2559 191.945 30.0794 191.73 30.2227C191.301 30.6523 190.62 31.1178 189.689 31.6191C188.758 32.1204 187.255 32.5859 185.178 33.0156C184.605 33.1589 184.032 33.2305 183.459 33.2305C182.958 33.2305 182.421 33.1947 181.848 33.123C181.275 33.0514 180.773 32.9082 180.344 32.6934ZM216.76 18.7285C216.545 19.5163 216.115 20.304 215.471 21.0918C214.898 21.8079 214.217 22.4167 213.43 22.918C212.713 23.3477 211.962 23.6341 211.174 23.7773C210.386 23.9206 209.741 23.7773 209.24 23.3477C207.736 22.2018 206.949 20.9844 206.877 19.6953C206.805 18.3346 207.128 17.0814 207.844 15.9355C208.56 14.7181 209.455 13.7155 210.529 12.9277C211.603 12.0684 212.534 11.5671 213.322 11.4238C214.11 11.2806 214.755 11.4596 215.256 11.9609C215.829 12.3906 216.258 12.9993 216.545 13.7871C216.831 14.5033 216.975 15.3268 216.975 16.2578C217.046 17.1888 216.975 18.0124 216.76 18.7285ZM201.936 41.6094C202.294 41.1797 202.974 40.8216 203.977 40.5352C204.979 40.2487 206.018 40.0339 207.092 39.8906C208.166 39.6758 209.133 39.5684 209.992 39.5684C210.923 39.4967 211.46 39.4967 211.603 39.5684C211.675 39.64 211.496 40.3919 211.066 41.8242C210.637 43.2565 210.1 44.9395 209.455 46.873C208.81 48.8066 208.13 50.8118 207.414 52.8887C206.698 54.8939 206.161 56.541 205.803 57.8301C205.445 59.1191 205.015 60.5872 204.514 62.2344C204.012 63.8099 203.547 65.3854 203.117 66.9609C202.759 68.4648 202.508 69.8971 202.365 71.2578C202.222 72.6185 202.329 73.6569 202.687 74.373C203.046 75.2324 203.439 75.8411 203.869 76.1992C204.299 76.4857 204.764 76.6289 205.266 76.6289C206.698 76.6289 208.488 75.8411 210.637 74.2656C212.857 72.6901 215.077 70.8281 217.297 68.6797C219.588 66.4596 221.701 64.2396 223.635 62.0195C225.568 59.7279 227.001 57.9017 227.932 56.541C228.505 55.8249 229.077 55.3594 229.65 55.1445C230.295 54.9297 230.796 54.9655 231.154 55.252C231.584 55.5384 231.799 56.0039 231.799 56.6484C231.87 57.293 231.656 58.0449 231.154 58.9043C230.008 60.9095 228.325 63.3086 226.105 66.1016C223.885 68.8229 221.522 71.4727 219.016 74.0508C216.509 76.5573 214.038 78.7057 211.603 80.4961C209.24 82.2865 207.307 83.2174 205.803 83.2891C204.585 83.3607 203.368 83.1458 202.15 82.6445C201.005 82.2148 199.93 81.6061 198.928 80.8184C197.997 79.959 197.209 78.9922 196.564 77.918C195.92 76.7721 195.562 75.5905 195.49 74.373C195.275 72.5827 195.275 70.1478 195.49 67.0684C195.705 63.9173 196.099 60.7305 196.672 57.5078C197.245 54.2135 197.961 51.0983 198.82 48.1621C199.751 45.2259 200.79 43.0417 201.936 41.6094ZM262.951 54.8223C263.238 54.3926 263.596 54.1419 264.025 54.0703C264.527 53.9271 264.921 53.9629 265.207 54.1777C265.493 54.3926 265.637 54.7507 265.637 55.252C265.708 55.7533 265.529 56.4336 265.1 57.293C263.667 60.0143 261.769 62.9505 259.406 66.1016C257.115 69.2526 254.68 72.2246 252.102 75.0176C249.523 77.7389 247.017 79.9948 244.582 81.7852C242.147 83.5755 240.106 84.4707 238.459 84.4707C236.096 84.4707 234.126 84.0052 232.551 83.0742C230.975 82.1432 229.722 80.9974 228.791 79.6367C227.932 78.276 227.323 76.8079 226.965 75.2324C226.607 73.5853 226.499 72.0814 226.643 70.7207C226.714 69.5749 226.965 67.5339 227.394 64.5977C227.824 61.5898 228.397 58.1523 229.113 54.2852C229.829 50.3464 230.617 46.1569 231.477 41.7168C232.408 37.2051 233.374 32.8724 234.377 28.7188C233.159 28.862 231.942 29.0052 230.725 29.1484C229.507 29.2917 228.397 29.3633 227.394 29.3633C225.103 29.3633 222.954 29.1126 220.949 28.6113C218.872 28.0384 217.333 27.5013 216.33 27C215.757 26.7135 215.506 26.3197 215.578 25.8184C215.65 25.2454 215.865 24.7083 216.223 24.207C216.581 23.6341 217.046 23.1686 217.619 22.8105C218.12 22.3809 218.586 22.166 219.016 22.166C220.376 22.3092 221.844 22.4525 223.42 22.5957C224.995 22.6673 226.714 22.6673 228.576 22.5957C229.937 22.5241 231.226 22.4167 232.443 22.2734C233.732 22.1302 234.986 21.9512 236.203 21.7363C237.134 18.2988 238.029 15.3268 238.889 12.8203C239.82 10.2422 240.643 8.4518 241.359 7.4492C241.574 7.0911 242.04 6.80469 242.756 6.58984C243.544 6.30339 244.367 6.12435 245.227 6.05273C246.086 5.90951 246.909 5.90951 247.697 6.05273C248.485 6.12435 249.058 6.375 249.416 6.80469C249.774 7.3776 249.917 8.8457 249.846 11.209C249.774 13.5723 249.38 16.5801 248.664 20.2324C251.672 20.2324 254.322 20.4115 256.613 20.7695C258.977 21.056 260.982 21.4141 262.629 21.8438C264.276 22.2018 265.601 22.5957 266.603 23.0254C267.606 23.3835 268.358 23.6341 268.859 23.7773C269.361 23.9206 269.611 24.2786 269.611 24.8516C269.683 25.4245 269.575 26.0332 269.289 26.6777C269.074 27.2507 268.68 27.752 268.107 28.1816C267.534 28.6113 266.89 28.7546 266.174 28.6113C265.458 28.5397 264.634 28.3965 263.703 28.1816C262.844 27.9668 261.769 27.7878 260.48 27.6445C259.263 27.5013 257.795 27.3581 256.076 27.2148C254.357 27.0716 252.352 27 250.06 27C249.631 27 249.13 27.0358 248.557 27.1074C248.055 27.1074 247.518 27.1074 246.945 27.1074C246.659 28.2533 246.372 29.3991 246.086 30.5449C245.871 31.6191 245.549 32.765 245.119 33.9824C244.188 36.847 243.114 39.9622 241.896 43.3281C240.822 46.2643 239.533 49.6302 238.029 53.4258C236.525 57.2214 234.842 61.2676 232.98 65.5645C232.551 68.6439 232.587 71.0072 233.088 72.6543C233.661 74.2298 234.341 75.3757 235.129 76.0918C236.06 76.8796 237.206 77.3092 238.566 77.3809C239.641 77.5241 240.93 77.166 242.434 76.3066C244.009 75.3757 245.62 74.1582 247.268 72.6543C248.915 71.1504 250.562 69.5033 252.209 67.7129C253.928 65.9225 255.503 64.168 256.936 62.4492C258.368 60.7305 259.621 59.1908 260.695 57.8301C261.769 56.3978 262.521 55.3952 262.951 54.8223Z" fill="black"/>
</svg>
